<?xml version="1.0" encoding="UTF-8"?>
<svg enable-background="new 0 0 612 612" version="1.1" viewBox="0 0 612 612" xml:space="preserve" xmlns="http://www.w3.org/2000/svg" xmlns:xlink="http://www.w3.org/1999/xlink">
<style type="text/css">
	.st0{fill:none;stroke:#6A7073;stroke-width:33;stroke-miterlimit:10;stroke-dasharray:120,40;}
	.st1{fill:#FFFFFF;stroke:#000000;stroke-width:32;stroke-miterlimit:10;}
	.st2{display:none;fill:#161616;stroke:#000000;stroke-width:32;stroke-miterlimit:10;}
	.st3{clip-path:url(#XMLID_00000133498038049796904260000016962830729436535680_);}
	.st4{fill:#006599;}
	.st5{fill:#044660;}
	.st6{fill:#4EA3C4;}
</style>
<path class="st0" d="m32.8 359.6c29.6 149.9 175 247.4 324.9 217.8s247.4-175 217.8-324.9"/>
<path class="st0" d="M32.8,253.1C62.4,103.3,207.9,5.8,357.7,35.4s247.4,175,217.8,324.9"/>
<path class="st1" d="m149.4 399h-101.1c-16.1 0-29.1-13-29.1-29.1v-127.6c0-16.1 13-29.1 29.1-29.1h101.1c16.1 0 29.1 13 29.1 29.1v127.6c0 16.1-13 29.1-29.1 29.1z"/>
<path class="st1" d="m561.3 399h-101.1c-16.1 0-29.1-13-29.1-29.1v-127.6c0-16.1 13-29.1 29.1-29.1h101.1c16.1 0 29.1 13 29.1 29.1v127.6c0 16.1-13.1 29.1-29.1 29.1z"/>
<rect class="st2" x="-212.4" y="-185.4" width="1316.1" height="1064.9"/>

	<defs>
		<circle id="a" cx="305.7" cy="306" r="212.3"/>
	</defs>
	<use fill="#FFFFFF" xlink:href="#a"/>
	<clipPath id="b">
		<use xlink:href="#a"/>
	</clipPath>
	
		<g clip-path="url(#b)">
		<g transform="matrix(1.1222 0 0 1.1222 -26.637 -12.567)">
			<path class="st4" d="m151.7 480 105.2-315.4 79.3 100.8-87.6 256"/>
			<path class="st5" d="m72.5 343 194.8-181.1-150.6 287.5"/>
			<path class="st6" d="m295.3 530.2 40.5-350.8 64.1 15.2 125.4 231.7"/>
			<path d="m257.7 163.5-141 285.9 35 30.5 124.7-311.5-18.7-4.9z"/>
			<path d="m331.9 171-83.3 350.4 46.7 8.8 54.9-331.9 39.4 7.9 131.1 224.1 22.7-36.9-139.1-211.2-72.4-11.2z"/>
			<path d="m267.2 147.8-194.7 139.5v55.7l188.5-163.4 53.7 98 14.7-44.8-62.2-85z"/>
		</g>
	</g>
	
		<use fill="none" stroke="#000000" stroke-miterlimit="10" stroke-width="32" xlink:href="#a"/>


</svg>
