<?xml version="1.0" encoding="UTF-8" standalone="no"?>
<!-- Created with Inkscape (http://www.inkscape.org/) -->

<svg
   width="72"
   height="72"
   viewBox="0 0 71.999998 72.000002"
   version="1.1"
   id="svg5"
   xmlns="http://www.w3.org/2000/svg"
   xmlns:svg="http://www.w3.org/2000/svg">
  <defs
     id="defs2" />
  <g
     id="layer1">
    <g
       id="g1"
       transform="matrix(0.21377203,0,0,0.21377203,-5.0744178,-5.3952963)">
      <path
         style="fill:#bfbfbf;stroke:none;stroke-width:1px;stroke-linecap:butt;stroke-linejoin:miter;stroke-opacity:1"
         d="M 80.407961,294.43495 155.64039,68.910147 212.36984,140.96957 149.70008,324.07276"
         id="path4518" />
      <path
         style="fill:#808080;stroke:none;stroke-width:1px;stroke-linecap:butt;stroke-linejoin:miter;stroke-opacity:1"
         d="M 23.73752,196.49145 163.03917,66.962887 55.349629,272.60413"
         id="path4516" />
      <path
         style="color:#000000;fill:#ffffff;-inkscape-stroke:none"
         d="M 183.13159,330.39563 212.1202,79.549888 257.97694,90.386172 347.65957,256.12078"
         id="path1" />
      <path
         style="color:#000000;fill:#000000;-inkscape-stroke:none"
         d="M 156.19474,68.126085 55.349629,272.60413 80.407961,294.43495 169.55576,71.662973 Z"
         id="path869" />
      <path
         style="color:#000000;fill:#000000;-inkscape-stroke:none"
         d="m 209.30319,73.471058 -59.60311,250.601702 33.43151,6.32287 39.25894,-237.384487 28.16374,5.667052 93.77839,160.229175 16.21226,-26.38589 -99.5274,-151.001981 z"
         id="path2" />
      <path
         style="color:#000000;fill:#000000;-inkscape-stroke:none"
         d="M 163.02824,56.888865 23.73752,156.68443 v 39.80702 l 134.80787,-116.831326 38.37965,70.074086 10.53828,-32.03209 z"
         id="path1847" />
    </g>
  </g>
</svg>
