<?xml version="1.0" encoding="UTF-8" standalone="no"?>
<!-- Created with Inkscape (http://www.inkscape.org/) -->

<svg
   width="16mm"
   height="16mm"
   viewBox="0 0 60.47244 60.472443"
   version="1.1"
   id="svg5"
   xmlns="http://www.w3.org/2000/svg"
   xmlns:svg="http://www.w3.org/2000/svg">
  <defs
     id="defs2" />
  <g
     id="layer1"
     transform="matrix(0.15999999,0,0,0.15999999,1.2155701e-6,-2.5207164)">
    <g
       id="g1"
       transform="matrix(1.1221629,0,0,1.1221629,-26.63737,-12.567281)">
      <path
         style="fill:#bfbfbf;stroke:none;stroke-width:1px;stroke-linecap:butt;stroke-linejoin:miter;stroke-opacity:1"
         d="M 80.407961,294.43495 155.64039,68.910147 212.36984,140.96957 149.70008,324.07276"
         id="path4518" />
      <path
         style="fill:#808080;stroke:none;stroke-width:1px;stroke-linecap:butt;stroke-linejoin:miter;stroke-opacity:1"
         d="M 23.73752,196.49145 163.03917,66.962887 55.349629,272.60413"
         id="path4516" />
      <path
         style="color:#000000;fill:#ffffff;-inkscape-stroke:none"
         d="M 183.13159,330.39563 212.1202,79.549888 257.97694,90.386172 347.65957,256.12078"
         id="path1" />
      <path
         style="color:#000000;fill:#000000;-inkscape-stroke:none"
         d="M 143.597,83.954925 55.349629,272.60413 80.407961,294.43495 167.48453,83.954925 Z"
         id="path869" />
      <path
         style="color:#000000;fill:#000000;-inkscape-stroke:none"
         d="m 209.30319,73.471058 -59.60311,250.601702 33.43151,6.32287 45.77908,-227.78727 17.26646,2.75394 98.15553,153.54507 16.21226,-26.38589 -99.5274,-151.001981 z"
         id="path2" />
      <path
         style="color:#000000;fill:#000000;-inkscape-stroke:none"
         d="M 163.02824,56.888865 23.73752,156.68443 v 39.80702 l 132.73233,-104.130391 40.45519,57.373151 10.53828,-32.03209 z"
         id="path1847" />
    </g>
  </g>
</svg>
