<?xml version="1.0" encoding="UTF-8" standalone="no"?>
<!-- Created with Inkscape (http://www.inkscape.org/) -->

<svg
   width="180"
   height="110"
   viewBox="0 0 47.624997 29.104171"
   version="1.1"
   id="svg1"
   sodipodi:docname="logo_type_vertical.svg"
   inkscape:version="1.3.2 (091e20e, 2023-11-25)"
   xmlns:inkscape="http://www.inkscape.org/namespaces/inkscape"
   xmlns:sodipodi="http://sodipodi.sourceforge.net/DTD/sodipodi-0.dtd"
   xmlns="http://www.w3.org/2000/svg"
   xmlns:svg="http://www.w3.org/2000/svg">
  <sodipodi:namedview
     id="namedview1"
     pagecolor="#ffffff"
     bordercolor="#666666"
     borderopacity="1.0"
     inkscape:showpageshadow="2"
     inkscape:pageopacity="0.0"
     inkscape:pagecheckerboard="0"
     inkscape:deskcolor="#d1d1d1"
     inkscape:document-units="mm"
     inkscape:zoom="7.0227142"
     inkscape:cx="85.935435"
     inkscape:cy="54.394923"
     inkscape:window-width="2560"
     inkscape:window-height="1369"
     inkscape:window-x="2560"
     inkscape:window-y="0"
     inkscape:window-maximized="1"
     inkscape:current-layer="svg1" />
  <defs
     id="defs1" />
  <path
     style="font-size:10.952px;font-family:'Source Sans Pro';-inkscape-font-specification:'Source Sans Pro Black, ';letter-spacing:0px;word-spacing:0px;white-space:pre;stroke-width:0.264583"
     d="M 5.2564308,7.4753655 5.1012077,8.1103652 H 6.794541 L 6.6393179,7.4753655 Q 6.4699846,6.8121437 6.3006513,6.0360329 6.1313179,5.2599225 5.9619846,4.5684784 H 5.905541 Q 5.7503179,5.2740335 5.5809846,6.0501442 5.4257642,6.8121437 5.2564308,7.4753655 Z M 1.728654,11.934473 4.5226539,2.7622571 H 7.4577615 L 10.251761,11.934473 H 7.683541 L 7.2319846,9.9871418 H 4.6637642 L 4.2122077,11.934473 Z M 13.1022,12.103807 q -0.62089,0 -1.044223,-0.183444 -0.409221,-0.197556 -0.663221,-0.550333 -0.254,-0.352777 -0.36689,-0.832555 -0.09878,-0.493889 -0.09878,-1.0865552 V 2.1131464 h 2.427108 v 7.42244 q 0,0.3668887 0.127,0.4938886 0.141113,0.127 0.268113,0.127 0.07055,0 0.112887,0 0.05645,0 0.141113,-0.02822 l 0.28222,1.778 q -0.197553,0.08467 -0.493887,0.14111 -0.282223,0.05644 -0.691443,0.05644 z m 2.031976,2.31422 V 4.8789227 h 1.975554 l 0.169333,0.6491105 h 0.05644 q 0.395112,-0.3668884 0.888999,-0.5926661 0.49389,-0.2257777 1.030111,-0.2257777 0.620889,0 1.128889,0.2539997 0.508,0.254 0.860777,0.7196664 0.366887,0.4656664 0.550334,1.1288882 0.197553,0.6632218 0.197553,1.4816658 0,0.9172215 -0.254,1.6227767 -0.239887,0.7055568 -0.64911,1.1994438 -0.40922,0.479777 -0.945443,0.733777 -0.522111,0.254 -1.086554,0.254 -0.87489,0 -1.580444,-0.705554 l 0.08467,1.072443 v 1.947331 z m 3.33022,-4.289774 q 0.423334,0 0.733777,-0.3951112 0.310444,-0.3951108 0.310444,-1.4111102 0,-0.8748884 -0.254,-1.2558882 -0.239887,-0.3809997 -0.733777,-0.3809997 -0.282221,0 -0.508,0.112889 -0.211667,0.1128887 -0.451554,0.3951107 v 2.5964428 q 0.211667,0.1975556 0.437444,0.2681108 0.225776,0.07056 0.465666,0.07056 z m 4.854218,1.80622 V 4.8789227 h 2.42711 v 7.0555503 z m 1.213554,-7.9304387 q -0.592664,0 -0.973664,-0.3386664 -0.381,-0.3386667 -0.381,-0.8748884 0,-0.5362221 0.381,-0.8748885 0.381,-0.3386664 0.973664,-0.3386664 0.592666,0 0.973666,0.3386664 0.381,0.3386664 0.381,0.8748885 0,0.5362217 -0.381,0.8748884 -0.381,0.3386664 -0.973666,0.3386664 z m 2.850417,7.9304387 V 4.8789227 h 1.975556 l 0.169334,0.8466662 h 0.05644 q 0.423333,-0.4092221 0.959554,-0.7055552 0.550333,-0.3104443 1.27,-0.3104443 1.15711,0 1.67922,0.7902218 0.522113,0.7761105 0.522113,2.088443 v 4.3462188 h -2.42711 V 7.8986985 q 0,-0.6773328 -0.169333,-0.9031105 -0.169334,-0.2257776 -0.536223,-0.2257776 -0.338667,0 -0.564444,0.141111 -0.225777,0.141111 -0.508,0.3951107 v 4.6284409 z m 11.486422,0.169334 q -0.77611,0 -1.439333,-0.239888 -0.663221,-0.254 -1.15711,-0.719666 -0.479777,-0.479777 -0.762,-1.1712225 -0.282221,-0.6914438 -0.282221,-1.5663322 0,-0.8607772 0.282221,-1.5381103 0.296333,-0.691444 0.762,-1.1712215 0.479776,-0.4797774 1.086553,-0.7337774 0.60678,-0.2539997 1.25589,-0.2539997 0.77611,0 1.354664,0.268111 0.578557,0.2681108 0.959557,0.7337772 0.381,0.4656664 0.564443,1.0865551 0.197557,0.6208884 0.197557,1.3264435 0,0.3245554 -0.04233,0.6067774 -0.02822,0.2822221 -0.05645,0.4092221 h -4.021664 q 0.169333,0.6349994 0.60678,0.8889993 0.437443,0.239889 1.03011,0.239889 0.366887,0 0.705554,-0.09878 0.352776,-0.112889 0.733776,-0.3245556 l 0.790224,1.4393326 q -0.578557,0.409223 -1.284111,0.62089 -0.691443,0.197554 -1.28411,0.197554 z M 37.542564,7.5600321 h 2.088443 q 0,-0.409222 -0.211667,-0.7055551 -0.197556,-0.3104443 -0.747889,-0.3104443 -0.409221,0 -0.719667,0.2398887 -0.296333,0.2398887 -0.40922,0.7761107 z"
     id="path5" />
  <path
     d="m 3.1397642,24.634465 v -9.256882 h 1.4111102 l 1.778,4.938885 q 0.1693333,0.479777 0.3245564,0.973667 0.1693333,0.479776 0.338664,0.959553 h 0.056446 q 0.1693334,-0.479777 0.3104436,-0.959553 0.1552231,-0.49389 0.3245564,-0.973667 l 1.7497769,-4.938885 h 1.4252201 v 9.256882 H 9.7578717 v -5.094107 q 0,-0.62089 0.056446,-1.368777 0.056444,-0.74789 0.098777,-1.368777 H 9.8566486 L 9.1228717,18.905358 7.3730948,23.703132 H 6.5969846 L 4.8472077,18.905358 4.1134308,16.802804 h -0.056443 q 0.042333,0.620887 0.084667,1.368777 0.056444,0.747887 0.056444,1.368777 v 5.094107 z m 11.7263168,0.169333 q -0.860776,0 -1.439333,-0.508 -0.564443,-0.507999 -0.564443,-1.43933 0,-1.12889 1.001889,-1.721557 1.001887,-0.606776 3.203221,-0.846666 0,-0.324554 -0.07056,-0.634998 -0.05644,-0.310446 -0.211666,-0.550333 -0.155223,-0.23989 -0.437444,-0.381 -0.268113,-0.155223 -0.691443,-0.155223 -0.592667,0 -1.11478,0.225777 -0.52211,0.225779 -0.931331,0.508 l -0.451556,-0.804331 q 0.479777,-0.310446 1.17122,-0.592666 0.691447,-0.296334 1.524,-0.296334 1.25589,0 1.820334,0.77611 0.564443,0.762 0.564443,2.046111 v 4.205107 h -0.959553 l -0.09878,-0.818443 h -0.04233 q -0.493888,0.409223 -1.058334,0.705556 -0.564443,0.28222 -1.213554,0.28222 z m 0.338667,-0.931333 q 0.49389,0 0.931333,-0.225777 0.437444,-0.239889 0.931334,-0.691443 v -1.905 q -0.86078,0.11289 -1.453444,0.268113 -0.578556,0.15522 -0.945446,0.366887 -0.352777,0.211666 -0.52211,0.49389 -0.155221,0.26811 -0.155221,0.592666 0,0.592664 0.352777,0.846664 0.352777,0.254 0.860777,0.254 z m 5.192882,3.654777 v -9.750771 h 0.959556 l 0.09878,0.79022 h 0.04233 q 0.465666,-0.39511 1.016,-0.677333 0.564443,-0.282221 1.17122,-0.282221 0.663223,0 1.17122,0.254 0.508,0.239887 0.846667,0.705554 0.338667,0.451556 0.508,1.100667 0.183444,0.635 0.183444,1.439333 0,0.874887 -0.239887,1.566331 -0.23989,0.677333 -0.649111,1.15711 -0.409223,0.479779 -0.945446,0.733779 -0.53622,0.239887 -1.128887,0.239887 -0.479777,0 -0.959554,-0.211666 -0.465666,-0.211667 -0.945443,-0.578554 l 0.02822,1.199444 v 2.31422 z m 2.836331,-3.69711 q 0.423333,0 0.776112,-0.183444 0.366888,-0.197556 0.620888,-0.53622 0.26811,-0.35278 0.409223,-0.86078 0.15522,-0.508 0.15522,-1.142997 0,-0.564446 -0.09878,-1.03011 -0.09878,-0.465667 -0.324556,-0.790223 -0.211667,-0.338667 -0.564444,-0.522111 -0.338666,-0.183443 -0.818443,-0.183443 -0.437444,0 -0.889,0.239887 -0.437444,0.23989 -0.945444,0.691444 v 3.598333 q 0.465667,0.39511 0.90311,0.564443 0.437447,0.155221 0.776111,0.155221 z m 6.787419,0.973666 q -0.733777,0 -1.397,-0.26811 -0.66322,-0.26811 -1.15711,-0.677333 l 0.578556,-0.77611 q 0.451554,0.366887 0.917221,0.592666 0.479777,0.225777 1.100667,0.225777 0.677333,0 1.016,-0.310443 0.338666,-0.310446 0.338666,-0.762 0,-0.268111 -0.141113,-0.465667 -0.14111,-0.197556 -0.366887,-0.338667 -0.211666,-0.155223 -0.49389,-0.26811 -0.28222,-0.11289 -0.564443,-0.225777 -0.36689,-0.127 -0.733777,-0.282223 -0.36689,-0.169333 -0.663223,-0.39511 -0.282221,-0.23989 -0.465667,-0.550333 -0.183443,-0.310444 -0.183443,-0.74789 0,-0.409221 0.155223,-0.762 0.169333,-0.366887 0.465666,-0.620887 0.310444,-0.26811 0.747888,-0.409223 0.437443,-0.155221 0.987776,-0.155221 0.649111,0 1.185334,0.225777 0.550333,0.225777 0.945443,0.550333 l -0.550333,0.733777 q -0.352777,-0.26811 -0.733777,-0.437443 -0.381,-0.169334 -0.832554,-0.169334 -0.649113,0 -0.959556,0.296334 -0.296333,0.296333 -0.296333,0.691443 0,0.23989 0.127,0.423334 0.127,0.169333 0.338666,0.310443 0.211667,0.127 0.479777,0.23989 0.282223,0.09878 0.578557,0.211667 0.366887,0.14111 0.733776,0.296333 0.381,0.15522 0.677334,0.39511 0.296333,0.225777 0.479777,0.564444 0.197556,0.338666 0.197556,0.818443 0,0.423334 -0.169333,0.790223 -0.155223,0.366887 -0.479777,0.649111 -0.310446,0.282223 -0.790223,0.437443 -0.465667,0.169333 -1.072444,0.169333 z"
     id="path6"
     style="font-size:10.952px;font-family:'Source Sans Pro';-inkscape-font-specification:'Source Sans Pro';letter-spacing:0px;word-spacing:0px;white-space:pre;stroke-width:0.264583" />
  <path
     style="font-size:10.952px;font-family:'Source Sans Pro';-inkscape-font-specification:'Source Sans Pro Light, ';letter-spacing:0px;word-spacing:0px;white-space:pre;stroke-width:0.264583"
     d="m 33.916026,24.736065 q -0.143934,0 -0.254,-0.1016 -0.110067,-0.1016 -0.110067,-0.2794 0,-0.186267 0.110067,-0.287867 0.110066,-0.1016 0.254,-0.1016 0.143933,0 0.245533,0.1016 0.110067,0.1016 0.110067,0.287867 0,0.1778 -0.110067,0.2794 -0.1016,0.1016 -0.245533,0.1016 z m 3.081856,0 q -0.364067,0 -0.694267,-0.143933 -0.3302,-0.143934 -0.5842,-0.414867 -0.245533,-0.270933 -0.397933,-0.6604 -0.143934,-0.397933 -0.143934,-0.905933 0,-0.508 0.143934,-0.905933 0.1524,-0.4064 0.397933,-0.677334 0.254,-0.270933 0.5842,-0.414866 0.3302,-0.143934 0.694267,-0.143934 0.364066,0 0.694266,0.143934 0.338667,0.143933 0.5842,0.414866 0.254,0.270934 0.397934,0.677334 0.1524,0.397933 0.1524,0.905933 0,0.508 -0.1524,0.905933 -0.143934,0.389467 -0.397934,0.6604 -0.245533,0.270933 -0.5842,0.414867 -0.3302,0.143933 -0.694266,0.143933 z m 0,-0.3302 q 0.3048,0 0.567266,-0.127 0.270934,-0.135467 0.4572,-0.372533 0.194734,-0.237067 0.3048,-0.567267 0.110067,-0.3302 0.110067,-0.728133 0,-0.4064 -0.110067,-0.7366 -0.110066,-0.3302 -0.3048,-0.567267 -0.186266,-0.245533 -0.4572,-0.372533 -0.262466,-0.135467 -0.567266,-0.135467 -0.3048,0 -0.567267,0.135467 -0.262467,0.127 -0.4572,0.372533 -0.186267,0.237067 -0.296333,0.567267 -0.110067,0.3302 -0.110067,0.7366 0,0.397933 0.110067,0.728133 0.110066,0.3302 0.296333,0.567267 0.194733,0.237066 0.4572,0.372533 0.262467,0.127 0.567267,0.127 z m 3.048002,0.2286 v -4.064 h 0.321734 l 0.03387,0.753534 h 0.0254 q 0.2032,-0.381 0.491067,-0.618067 0.296333,-0.237067 0.6604,-0.237067 0.118533,0 0.211667,0.01693 0.09313,0.01693 0.194733,0.06773 l -0.08467,0.338667 q -0.1016,-0.04233 -0.1778,-0.0508 -0.0762,-0.01693 -0.194733,-0.01693 -0.270933,0 -0.575733,0.237067 -0.296334,0.2286 -0.5334,0.804333 v 2.7686 z m 3.928526,1.9558 q -0.770467,0 -1.2192,-0.3048 -0.448734,-0.3048 -0.448734,-0.821267 0,-0.270933 0.160867,-0.524933 0.160867,-0.254 0.440267,-0.4572 v -0.03387 q -0.1524,-0.09313 -0.254,-0.254 -0.1016,-0.160866 -0.1016,-0.397933 0,-0.270933 0.1524,-0.4572 0.1524,-0.194733 0.287866,-0.287866 v -0.03387 q -0.194733,-0.169333 -0.3556,-0.4572 -0.1524,-0.287867 -0.1524,-0.6604 0,-0.313267 0.110067,-0.575733 0.110067,-0.262467 0.3048,-0.448734 0.194733,-0.194733 0.4572,-0.296333 0.262467,-0.110067 0.5588,-0.110067 0.169333,0 0.3048,0.03387 0.135467,0.0254 0.2286,0.06773 h 1.380067 v 0.313267 h -0.948267 q 0.194733,0.169333 0.321733,0.440267 0.127,0.262466 0.127,0.5842 0,0.313266 -0.110066,0.575733 -0.110067,0.262467 -0.3048,0.4572 -0.186267,0.186267 -0.448734,0.296333 -0.254,0.1016 -0.550333,0.1016 -0.169333,0 -0.3556,-0.04233 -0.1778,-0.04233 -0.321733,-0.127 -0.135467,0.110067 -0.237067,0.245533 -0.09313,0.135467 -0.09313,0.338667 0,0.220133 0.160866,0.381 0.160867,0.1524 0.618067,0.1524 h 0.872067 q 0.6858,0 1.007533,0.2286 0.3302,0.220133 0.3302,0.702733 0,0.262467 -0.135467,0.508 -0.135466,0.254 -0.389466,0.440267 -0.245534,0.194733 -0.601134,0.3048 -0.3556,0.118533 -0.795866,0.118533 z m -0.05927,-3.547533 q 0.211667,0 0.397933,-0.0762 0.194734,-0.08467 0.338667,-0.237067 0.143933,-0.1524 0.2286,-0.364066 0.08467,-0.211667 0.08467,-0.465667 0,-0.254 -0.08467,-0.465667 -0.08467,-0.211666 -0.2286,-0.3556 -0.135467,-0.143933 -0.3302,-0.220133 -0.194733,-0.08467 -0.4064,-0.08467 -0.220133,0 -0.414867,0.08467 -0.186266,0.0762 -0.3302,0.220133 -0.143933,0.143934 -0.2286,0.3556 -0.08467,0.2032 -0.08467,0.465667 0,0.254 0.08467,0.465667 0.08467,0.211666 0.2286,0.364066 0.1524,0.1524 0.338667,0.237067 0.194733,0.0762 0.4064,0.0762 z m 0.1016,3.242733 q 0.338667,0 0.618067,-0.09313 0.2794,-0.08467 0.474133,-0.2286 0.194733,-0.143934 0.296333,-0.3302 0.110067,-0.1778 0.110067,-0.372534 0,-0.338666 -0.245533,-0.4826 -0.237067,-0.135466 -0.694267,-0.135466 h -0.872067 q -0.06773,0 -0.211666,-0.0085 -0.135467,-0.01693 -0.296334,-0.05927 -0.2794,0.194734 -0.4064,0.414867 -0.127,0.220133 -0.127,0.440267 0,0.381 0.347134,0.618066 0.3556,0.237067 1.007533,0.237067 z"
     id="path7" />
</svg>
