<?xml version="1.0" encoding="UTF-8" standalone="no"?>
<!-- Created with Inkscape (http://www.inkscape.org/) -->

<svg
   width="340"
   height="60"
   viewBox="0 0 89.958333 15.875"
   version="1.1"
   id="svg1"
   sodipodi:docname="logo_type_horizontal.svg"
   inkscape:version="1.3.2 (091e20e, 2023-11-25)"
   xmlns:inkscape="http://www.inkscape.org/namespaces/inkscape"
   xmlns:sodipodi="http://sodipodi.sourceforge.net/DTD/sodipodi-0.dtd"
   xmlns="http://www.w3.org/2000/svg"
   xmlns:svg="http://www.w3.org/2000/svg">
  <sodipodi:namedview
     id="namedview1"
     pagecolor="#ffffff"
     bordercolor="#666666"
     borderopacity="1.0"
     inkscape:showpageshadow="2"
     inkscape:pageopacity="0.0"
     inkscape:pagecheckerboard="0"
     inkscape:deskcolor="#d1d1d1"
     inkscape:document-units="mm"
     inkscape:zoom="3.7483919"
     inkscape:cx="149.26401"
     inkscape:cy="32.013728"
     inkscape:window-width="2560"
     inkscape:window-height="1369"
     inkscape:window-x="2560"
     inkscape:window-y="0"
     inkscape:window-maximized="1"
     inkscape:current-layer="svg1" />
  <defs
     id="defs1" />
  <g
     id="layer1"
     transform="translate(-59.410713,-39.096393)">
    <path
       style="font-size:53.3333px;line-height:0.9;font-family:'Source Sans Pro Black';-inkscape-font-specification:'Source Sans Pro Black, ';letter-spacing:0px;word-spacing:0px;white-space:pre;stroke-width:0.264583"
       d="m 65.669076,46.307171 -0.155223,0.635 h 1.693333 l -0.155223,-0.635 Q 66.88263,45.64395 66.713296,44.867839 66.543963,44.091728 66.37463,43.400284 h -0.05644 q -0.155223,0.705555 -0.324556,1.481666 -0.155221,0.762 -0.324554,1.425221 z m -3.527777,4.459108 2.794,-9.172216 h 2.935107 l 2.794,9.172216 h -2.56822 L 67.64463,48.818948 h -2.568221 l -0.451556,1.947331 z m 11.373546,0.169334 q -0.62089,0 -1.044223,-0.183444 -0.409221,-0.197556 -0.663221,-0.550333 -0.254,-0.352777 -0.36689,-0.832555 -0.09878,-0.493889 -0.09878,-1.086555 v -7.337774 h 2.427108 v 7.42244 q 0,0.366889 0.127,0.493889 0.141113,0.127 0.268113,0.127 0.07055,0 0.112887,0 0.05645,0 0.141113,-0.02822 l 0.28222,1.778 q -0.197553,0.08467 -0.493887,0.14111 -0.282223,0.05644 -0.691443,0.05644 z m 2.031976,2.31422 v -9.539104 h 1.975554 l 0.169333,0.64911 h 0.05644 q 0.395112,-0.366888 0.888999,-0.592666 0.49389,-0.225778 1.030111,-0.225778 0.620889,0 1.128889,0.254 0.508,0.254 0.860777,0.719667 0.366887,0.465666 0.550334,1.128888 0.197553,0.663221 0.197553,1.481666 0,0.917221 -0.254,1.622776 -0.239887,0.705557 -0.64911,1.199444 -0.40922,0.479777 -0.945443,0.733777 -0.522111,0.254 -1.086554,0.254 -0.87489,0 -1.580444,-0.705554 l 0.08467,1.072443 v 1.947331 z m 3.33022,-4.289774 q 0.423334,0 0.733777,-0.395111 0.310444,-0.395111 0.310444,-1.41111 0,-0.874889 -0.254,-1.255889 -0.239887,-0.380999 -0.733777,-0.380999 -0.282221,0 -0.508,0.112889 -0.211667,0.112888 -0.451554,0.39511 v 2.596443 q 0.211667,0.197556 0.437444,0.268111 0.225776,0.07056 0.465666,0.07056 z m 4.854218,1.80622 v -7.05555 h 2.42711 v 7.05555 z m 1.213554,-7.930439 q -0.592664,0 -0.973664,-0.338666 -0.381,-0.338667 -0.381,-0.874889 0,-0.536222 0.381,-0.874888 0.381,-0.338666 0.973664,-0.338666 0.592666,0 0.973666,0.338666 0.381,0.338666 0.381,0.874888 0,0.536222 -0.381,0.874889 -0.381,0.338666 -0.973666,0.338666 z m 2.850417,7.930439 v -7.05555 h 1.975556 l 0.169334,0.846666 h 0.05644 q 0.423333,-0.409222 0.959554,-0.705555 0.550333,-0.310445 1.27,-0.310445 1.15711,0 1.67922,0.790222 0.522113,0.776111 0.522113,2.088443 v 4.346219 h -2.42711 v -4.035774 q 0,-0.677333 -0.169333,-0.903111 -0.169334,-0.225778 -0.536223,-0.225778 -0.338667,0 -0.564444,0.141111 -0.225777,0.141111 -0.508,0.395111 v 4.628441 z m 11.486422,0.169334 q -0.77611,0 -1.439333,-0.239888 -0.663221,-0.254 -1.15711,-0.719666 -0.479777,-0.479777 -0.762,-1.171222 -0.282221,-0.691444 -0.282221,-1.566333 0,-0.860777 0.282221,-1.53811 0.296333,-0.691444 0.762,-1.171221 0.479776,-0.479778 1.086553,-0.733778 0.60678,-0.254 1.25589,-0.254 0.77611,0 1.354668,0.268111 0.57855,0.268111 0.95955,0.733778 0.381,0.465666 0.56445,1.086555 0.19755,0.620888 0.19755,1.326443 0,0.324556 -0.0423,0.606778 -0.0282,0.282222 -0.0564,0.409222 h -4.021661 q 0.169333,0.634999 0.60678,0.888999 0.437443,0.239889 1.03011,0.239889 0.366887,0 0.705551,-0.09878 0.35278,-0.112889 0.73378,-0.324555 l 0.79022,1.439332 q -0.57855,0.409223 -1.28411,0.62089 -0.691441,0.197554 -1.284108,0.197554 z m -1.326443,-4.543775 h 2.088441 q 0,-0.409222 -0.211665,-0.705555 -0.197556,-0.310444 -0.747889,-0.310444 -0.409221,0 -0.719667,0.239888 -0.296333,0.239889 -0.40922,0.776111 z"
       id="path1" />
    <path
       style="font-size:53.3333px;line-height:0.9;font-family:'Source Sans Pro';-inkscape-font-specification:'Source Sans Pro';letter-spacing:0px;word-spacing:0px;white-space:pre;stroke-width:0.264583"
       d="m 103.88186,50.766279 v -9.256882 h 1.41111 l 1.77799,4.938885 q 0.16934,0.479778 0.32456,0.973667 0.16933,0.479777 0.33867,0.959554 h 0.0564 q 0.16933,-0.479777 0.31044,-0.959554 0.15523,-0.493889 0.32456,-0.973667 l 1.74978,-4.938885 h 1.42522 v 9.256882 h -1.10067 v -5.094107 q 0,-0.620889 0.0564,-1.368777 0.0564,-0.747889 0.0988,-1.368777 h -0.0564 l -0.73378,2.102554 -1.74977,4.797774 h -0.77611 l -1.74978,-4.797774 -0.73378,-2.102554 h -0.0564 q 0.0423,0.620888 0.0847,1.368777 0.0564,0.747888 0.0564,1.368777 v 5.094107 z m 11.72632,0.169334 q -0.86078,0 -1.43934,-0.508 -0.56444,-0.508 -0.56444,-1.439332 0,-1.128888 1.00189,-1.721554 1.00189,-0.606778 3.20322,-0.846667 0,-0.324555 -0.0706,-0.634999 -0.0564,-0.310445 -0.21167,-0.550333 -0.15522,-0.239889 -0.43744,-0.381 -0.26811,-0.155222 -0.69144,-0.155222 -0.59267,0 -1.11478,0.225777 -0.52211,0.225778 -0.93133,0.508 l -0.45156,-0.804333 q 0.47978,-0.310444 1.17122,-0.592666 0.69145,-0.296333 1.524,-0.296333 1.25589,0 1.82033,0.776111 0.56445,0.761999 0.56445,2.046109 v 4.205108 h -0.95956 l -0.0988,-0.818443 h -0.0423 q -0.49389,0.409223 -1.05833,0.705556 -0.56444,0.282221 -1.21355,0.282221 z m 0.33866,-0.931334 q 0.49389,0 0.93133,-0.225777 0.43745,-0.239887 0.93134,-0.691443 V 47.18206 q -0.86078,0.112889 -1.45345,0.268111 -0.57855,0.155222 -0.94544,0.366888 -0.35278,0.211667 -0.52211,0.493889 -0.15522,0.268111 -0.15522,0.592666 0,0.592668 0.35277,0.846665 0.35278,0.254 0.86078,0.254 z m 5.19288,3.654777 v -9.750772 h 0.95956 l 0.0988,0.790222 h 0.0423 q 0.46566,-0.395111 1.016,-0.677333 0.56444,-0.282222 1.17122,-0.282222 0.66322,0 1.17122,0.254 0.508,0.239888 0.84667,0.705555 0.33866,0.451555 0.508,1.100666 0.18344,0.634999 0.18344,1.439332 0,0.874889 -0.23989,1.566333 -0.23989,0.677332 -0.64911,1.157109 -0.40922,0.479779 -0.94544,0.733779 -0.53623,0.239888 -1.12889,0.239888 -0.47978,0 -0.95956,-0.211667 -0.46566,-0.211667 -0.94544,-0.578554 l 0.0282,1.199444 v 2.31422 z m 2.83633,-3.69711 q 0.42334,0 0.77611,-0.183444 0.36689,-0.197556 0.62089,-0.536221 0.26811,-0.352778 0.40922,-0.860778 0.15523,-0.507999 0.15523,-1.142999 0,-0.564444 -0.0988,-1.03011 -0.0988,-0.465667 -0.32456,-0.790222 -0.21166,-0.338666 -0.56444,-0.522111 -0.33867,-0.183444 -0.81844,-0.183444 -0.43745,0 -0.889,0.239889 -0.43745,0.239888 -0.94545,0.691444 v 3.598331 q 0.46567,0.395111 0.90311,0.564444 0.43745,0.155221 0.77611,0.155221 z m 6.78742,0.973667 q -0.73378,0 -1.397,-0.268111 -0.66322,-0.26811 -1.15711,-0.677333 l 0.57856,-0.77611 q 0.45155,0.366887 0.91722,0.592666 0.47978,0.225777 1.10066,0.225777 0.67734,0 1.016,-0.310443 0.33867,-0.310445 0.33867,-0.762 0,-0.268111 -0.14111,-0.465667 -0.14111,-0.197555 -0.36689,-0.338666 -0.21167,-0.155222 -0.49389,-0.268111 -0.28222,-0.112889 -0.56444,-0.225778 -0.36689,-0.127 -0.73378,-0.282222 -0.36689,-0.169333 -0.66322,-0.39511 -0.28222,-0.239889 -0.46567,-0.550334 -0.18344,-0.310444 -0.18344,-0.747888 0,-0.409222 0.15522,-0.762 0.16933,-0.366888 0.46567,-0.620888 0.31044,-0.268111 0.74789,-0.409222 0.43744,-0.155222 0.98777,-0.155222 0.64911,0 1.18533,0.225777 0.55034,0.225778 0.94545,0.550334 l -0.55033,0.733777 q -0.35278,-0.268111 -0.73378,-0.437444 -0.381,-0.169334 -0.83256,-0.169334 -0.64911,0 -0.95955,0.296334 -0.29633,0.296333 -0.29633,0.691444 0,0.239888 0.127,0.423333 0.127,0.169333 0.33866,0.310444 0.21167,0.127 0.47978,0.239889 0.28222,0.09878 0.57855,0.211666 0.36689,0.141111 0.73378,0.296333 0.381,0.155223 0.67733,0.395111 0.29634,0.225778 0.47978,0.564444 0.19756,0.338667 0.19756,0.818444 0,0.423333 -0.16934,0.790222 -0.15522,0.366888 -0.47977,0.649111 -0.31045,0.282223 -0.79023,0.437443 -0.46566,0.169334 -1.07244,0.169334 z"
       id="path2" />
    <path
       style="font-size:32px;line-height:0.9;font-family:'Source Sans Pro Light';-inkscape-font-specification:'Source Sans Pro Light, ';letter-spacing:0px;word-spacing:0px;white-space:pre;stroke-width:0.264583"
       d="m 134.65812,50.867879 q -0.14394,0 -0.254,-0.1016 -0.11007,-0.1016 -0.11007,-0.2794 0,-0.186266 0.11007,-0.287866 0.11006,-0.1016 0.254,-0.1016 0.14393,0 0.24553,0.1016 0.11007,0.1016 0.11007,0.287866 0,0.1778 -0.11007,0.2794 -0.1016,0.1016 -0.24553,0.1016 z m 3.08185,0 q -0.36407,0 -0.69427,-0.143933 -0.3302,-0.143933 -0.5842,-0.414867 -0.24553,-0.270933 -0.39793,-0.6604 -0.14393,-0.397933 -0.14393,-0.905933 0,-0.508 0.14393,-0.905933 0.1524,-0.4064 0.39793,-0.677333 0.254,-0.270934 0.5842,-0.414867 0.3302,-0.143933 0.69427,-0.143933 0.36407,0 0.69427,0.143933 0.33866,0.143933 0.5842,0.414867 0.254,0.270933 0.39793,0.677333 0.1524,0.397933 0.1524,0.905933 0,0.508 -0.1524,0.905933 -0.14393,0.389467 -0.39793,0.6604 -0.24554,0.270934 -0.5842,0.414867 -0.3302,0.143933 -0.69427,0.143933 z m 0,-0.3302 q 0.3048,0 0.56727,-0.127 0.27093,-0.135466 0.4572,-0.372533 0.19473,-0.237067 0.3048,-0.567267 0.11006,-0.330199 0.11006,-0.728133 0,-0.4064 -0.11006,-0.7366 -0.11007,-0.3302 -0.3048,-0.567266 -0.18627,-0.245534 -0.4572,-0.372534 -0.26247,-0.135466 -0.56727,-0.135466 -0.3048,0 -0.56727,0.135466 -0.26246,0.127 -0.4572,0.372534 -0.18626,0.237066 -0.29633,0.567266 -0.11007,0.3302 -0.11007,0.7366 0,0.397934 0.11007,0.728133 0.11007,0.3302 0.29633,0.567267 0.19474,0.237067 0.4572,0.372533 0.26247,0.127 0.56727,0.127 z m 3.048,0.2286 V 46.70228 h 0.32173 l 0.0339,0.753533 h 0.0254 q 0.2032,-0.381 0.49107,-0.618067 0.29633,-0.237066 0.6604,-0.237066 0.11853,0 0.21166,0.01693 0.0931,0.01693 0.19474,0.06773 l -0.0847,0.338666 q -0.1016,-0.04233 -0.1778,-0.0508 -0.0762,-0.01693 -0.19473,-0.01693 -0.27094,0 -0.57574,0.237066 -0.29633,0.2286 -0.5334,0.804334 v 2.768599 z m 3.92853,1.9558 q -0.77047,0 -1.2192,-0.3048 -0.44874,-0.3048 -0.44874,-0.821266 0,-0.270934 0.16087,-0.524934 0.16087,-0.254 0.44027,-0.4572 v -0.03387 q -0.1524,-0.09313 -0.254,-0.254 -0.1016,-0.160867 -0.1016,-0.397934 0,-0.270933 0.1524,-0.4572 0.1524,-0.194733 0.28786,-0.287866 v -0.03387 q -0.19473,-0.169333 -0.3556,-0.4572 -0.1524,-0.287866 -0.1524,-0.6604 0,-0.313266 0.11007,-0.575733 0.11007,-0.262467 0.3048,-0.448733 0.19473,-0.194734 0.4572,-0.296333 0.26247,-0.110067 0.5588,-0.110067 0.16933,0 0.3048,0.03387 0.13547,0.0254 0.2286,0.06773 h 1.38007 v 0.313266 h -0.94827 q 0.19473,0.169334 0.32173,0.440267 0.127,0.262467 0.127,0.5842 0,0.313267 -0.11006,0.575733 -0.11007,0.262467 -0.3048,0.4572 -0.18627,0.186267 -0.44874,0.296334 -0.254,0.101599 -0.55033,0.101599 -0.16933,0 -0.3556,-0.04233 -0.1778,-0.04233 -0.32173,-0.127 -0.13547,0.110067 -0.23707,0.245533 -0.0931,0.135467 -0.0931,0.338667 0,0.220133 0.16086,0.381 0.16087,0.1524 0.61807,0.1524 h 0.87207 q 0.6858,0 1.00753,0.2286 0.3302,0.220133 0.3302,0.702733 0,0.262467 -0.13547,0.508 -0.13546,0.254 -0.38946,0.440267 -0.24554,0.194733 -0.60114,0.3048 -0.3556,0.118533 -0.79586,0.118533 z m -0.0593,-3.547533 q 0.21167,0 0.39793,-0.0762 0.19474,-0.08467 0.33867,-0.237066 0.14393,-0.1524 0.2286,-0.364067 0.0847,-0.211667 0.0847,-0.465667 0,-0.254 -0.0847,-0.465666 -0.0847,-0.211667 -0.2286,-0.3556 -0.13547,-0.143934 -0.3302,-0.220134 -0.19473,-0.08467 -0.4064,-0.08467 -0.22013,0 -0.41487,0.08467 -0.18626,0.0762 -0.3302,0.220134 -0.14393,0.143933 -0.2286,0.3556 -0.0847,0.2032 -0.0847,0.465666 0,0.254 0.0847,0.465667 0.0847,0.211667 0.2286,0.364067 0.1524,0.1524 0.33867,0.237066 0.19473,0.0762 0.4064,0.0762 z m 0.1016,3.242733 q 0.33867,0 0.61807,-0.09313 0.2794,-0.08467 0.47413,-0.2286 0.19473,-0.143933 0.29633,-0.3302 0.11007,-0.1778 0.11007,-0.372533 0,-0.338667 -0.24553,-0.4826 -0.23707,-0.135467 -0.69427,-0.135467 h -0.87207 q -0.0677,0 -0.21166,-0.0085 -0.13547,-0.01693 -0.29634,-0.05927 -0.2794,0.194733 -0.4064,0.414866 -0.127,0.220134 -0.127,0.440267 0,0.381 0.34714,0.618067 0.3556,0.237066 1.00753,0.237066 z"
       id="path3" />
  </g>
</svg>
